<svg width="69" height="69" viewBox="0 0 69 69" fill="none" xmlns="http://www.w3.org/2000/svg">
<circle cx="34.4573" cy="34.4573" r="34.4573" fill="#03BCA3"/>
<circle cx="34.4577" cy="34.4568" r="32.1042" fill="#011735"/>
<g clip-path="url(#clip0_1_6933)">
<path d="M21.2975 40.1568C25.804 41.3998 26.8691 41.0473 27.6756 42.2656C27.7679 42.4078 28.2358 43.119 28.1435 44.028C28.0696 44.7577 27.6633 45.3205 27.4108 45.5678C25.8656 47.0705 21.6176 45.2339 19.1858 43.2241C18.6563 42.785 17.2342 41.6101 17.5174 40.7752C17.6344 40.4351 17.9976 40.262 18.2623 40.1445C19.4197 39.625 20.6203 39.9713 21.2975 40.1568Z" fill="#03BCA3"/>
<path d="M35.2182 9.72534H34.2578V16.0516H35.2182V9.72534Z" fill="#03BCA3"/>
<path d="M36.8618 15.3837H32.6076C31.4652 15.3837 30.5391 16.3139 30.5391 17.4615C30.5391 18.609 31.4652 19.5393 32.6076 19.5393H36.8618C38.0042 19.5393 38.9303 18.609 38.9303 17.4615C38.9303 16.3139 38.0042 15.3837 36.8618 15.3837Z" fill="#03BCA3"/>
<path d="M34.3426 17.3749H35.1307C43.2018 17.3749 49.7523 23.9547 49.7523 32.0619C49.7523 36.6195 46.0707 40.3175 41.5334 40.3175H27.9337C23.3964 40.3175 19.7148 36.6195 19.7148 32.0619C19.7148 23.9547 26.2653 17.3749 34.3365 17.3749H34.3426Z" fill="#03BCA3"/>
<path d="M45.0315 32.705C44.6375 32.9029 44.2004 33.0018 43.751 33.0018H25.7248C25.2754 33.0018 24.8383 32.8967 24.4443 32.705C23.4777 32.2288 22.9359 31.2579 23.0714 30.2623L23.0837 30.1881C23.5454 26.824 26.5805 24.2391 30.2929 24.0474C31.8628 23.967 33.5189 23.9237 35.2366 23.9299C36.5848 23.9361 37.89 23.9794 39.1459 24.0412C42.8767 24.2329 45.9303 26.8116 46.3982 30.1881C46.3982 30.2129 46.4044 30.2376 46.4106 30.2623C46.546 31.2579 46.0042 32.2227 45.0377 32.705H45.0315Z" fill="#011735"/>
<path d="M29.9848 31.2951C31.3313 31.2951 32.4228 30.1987 32.4228 28.8462C32.4228 27.4937 31.3313 26.3973 29.9848 26.3973C28.6384 26.3973 27.5469 27.4937 27.5469 28.8462C27.5469 30.1987 28.6384 31.2951 29.9848 31.2951Z" fill="#EEFDFF"/>
<path d="M29.9857 30.9055C31.1179 30.9055 32.0358 29.9836 32.0358 28.8463C32.0358 27.709 31.1179 26.787 29.9857 26.787C28.8534 26.787 27.9355 27.709 27.9355 28.8463C27.9355 29.9836 28.8534 30.9055 29.9857 30.9055Z" fill="#011735"/>
<path d="M31.2957 28.3082C31.2957 28.7288 30.9571 29.0689 30.5385 29.0689C30.1199 29.0689 29.7812 28.7288 29.7812 28.3082C29.7812 27.8877 30.1199 27.5476 30.5385 27.5476C30.9571 27.5476 31.2957 27.8877 31.2957 28.3082Z" fill="#EEFDFF"/>
<path d="M29.6825 30.7261C29.8491 30.7261 29.9842 30.5905 29.9842 30.4231C29.9842 30.2558 29.8491 30.1201 29.6825 30.1201C29.5159 30.1201 29.3809 30.2558 29.3809 30.4231C29.3809 30.5905 29.5159 30.7261 29.6825 30.7261Z" fill="#EEFDFF"/>
<path d="M28.9328 29.9655C28.9328 30.0521 28.8651 30.1201 28.7789 30.1201C28.6927 30.1201 28.625 30.0521 28.625 29.9655C28.625 29.8789 28.6927 29.8109 28.7789 29.8109C28.8651 29.8109 28.9328 29.8789 28.9328 29.9655Z" fill="#EEFDFF"/>
<path d="M39.1704 31.2951C40.5168 31.2951 41.6083 30.1987 41.6083 28.8462C41.6083 27.4937 40.5168 26.3973 39.1704 26.3973C37.8239 26.3973 36.7324 27.4937 36.7324 28.8462C36.7324 30.1987 37.8239 31.2951 39.1704 31.2951Z" fill="#EEFDFF"/>
<path d="M39.1712 30.9055C40.3034 30.9055 41.2213 29.9836 41.2213 28.8463C41.2213 27.709 40.3034 26.787 39.1712 26.787C38.039 26.787 37.1211 27.709 37.1211 28.8463C37.1211 29.9836 38.039 30.9055 39.1712 30.9055Z" fill="#011735"/>
<path d="M40.4813 28.3082C40.4813 28.7288 40.1427 29.0689 39.724 29.0689C39.3054 29.0689 38.9668 28.7288 38.9668 28.3082C38.9668 27.8877 39.3054 27.5476 39.724 27.5476C40.1427 27.5476 40.4813 27.8877 40.4813 28.3082Z" fill="#EEFDFF"/>
<path d="M38.8622 30.7261C39.0288 30.7261 39.1639 30.5905 39.1639 30.4231C39.1639 30.2558 39.0288 30.1201 38.8622 30.1201C38.6956 30.1201 38.5605 30.2558 38.5605 30.4231C38.5605 30.5905 38.6956 30.7261 38.8622 30.7261Z" fill="#EEFDFF"/>
<path d="M38.1106 29.9655C38.1106 30.0521 38.0428 30.1201 37.9566 30.1201C37.8705 30.1201 37.8027 30.0521 37.8027 29.9655C37.8027 29.8789 37.8705 29.8109 37.9566 29.8109C38.0428 29.8109 38.1106 29.8789 38.1106 29.9655Z" fill="#EEFDFF"/>
<path d="M35.9626 9.30479C35.9626 9.98503 35.4147 10.5416 34.7313 10.5416C34.0479 10.5416 33.5 9.99122 33.5 9.30479C33.5 8.61837 34.0479 8.06799 34.7313 8.06799C35.4147 8.06799 35.9626 8.61837 35.9626 9.30479Z" fill="#03BCA3"/>
<path d="M35.5929 8.82241C35.5929 9.03267 35.4267 9.19964 35.2173 9.19964C35.008 9.19964 34.8418 9.03267 34.8418 8.82241C34.8418 8.61216 35.008 8.44519 35.2173 8.44519C35.4267 8.44519 35.5929 8.61216 35.5929 8.82241Z" fill="white"/>
<path d="M45.2588 29.3286C45.1234 29.4275 44.1691 27.4734 41.6019 25.7728C40.703 25.1791 39.8103 24.7524 39.8657 24.6287C39.9211 24.505 40.9246 24.7338 41.725 25.1111C44.2799 26.3046 45.425 29.2111 45.265 29.3286H45.2588Z" fill="white"/>
<path d="M38.4067 34.4675C38.376 34.7953 38.1051 35.0488 37.7788 35.0797L33.2784 35.5188C32.9521 35.5497 32.6381 35.358 32.5458 35.0426C32.5027 34.9004 32.4719 34.7582 32.4473 34.6098C32.4473 34.5665 32.4473 34.5294 32.478 34.4923C32.5027 34.4613 32.5396 34.4366 32.5827 34.4366L38.2651 33.8862C38.3082 33.8862 38.3452 33.8924 38.3759 33.9233C38.4067 33.9481 38.4252 33.9914 38.4252 34.0285C38.4314 34.1769 38.4252 34.3253 38.4129 34.4737L38.4067 34.4675Z" fill="#EEFDFF"/>
<path d="M38.4072 34.4675C38.2656 35.8713 37.1513 37.0215 35.7046 37.1638C34.2763 37.2998 32.9834 36.4093 32.5586 35.0921C32.6694 35.3766 32.9649 35.5435 33.2727 35.5126L37.7793 35.0797C38.1056 35.0488 38.3765 34.7953 38.4072 34.4675Z" fill="#079E85"/>
<path d="M45.4988 44.6216C45.4988 44.6649 45.4988 44.702 45.4988 44.7391C45.4865 45.1164 45.3941 45.407 45.351 45.5307C44.1136 49.3338 43.3687 51.3375 42.3282 52.9639C42.1497 53.2421 41.9588 53.5142 41.7557 53.774C41.4909 54.1265 41.1954 54.4666 40.8753 54.8252C40.155 55.6106 39.0653 55.9693 38.7144 56.093C37.4338 56.5506 36.301 56.464 35.5438 56.4702H35.4145C34.6572 56.464 33.5306 56.5444 32.2439 56.093C31.893 55.9693 30.8033 55.6168 30.083 54.8252C28.1068 52.6608 27.3434 50.8675 25.6072 45.5307C25.5641 45.407 25.4841 45.1411 25.4656 44.7886C25.4656 44.6835 25.4595 44.5845 25.4656 44.4794C25.5026 43.8425 25.7611 43.2179 26.2167 42.6428C26.9986 41.6657 28.2053 41.1277 29.455 41.1215L35.4761 41.0968L41.3924 41.072C42.6668 41.072 43.9043 41.6038 44.7169 42.5995C45.1109 43.0818 45.3572 43.6013 45.4495 44.1331C45.4619 44.2073 45.4742 44.2877 45.4803 44.3619C45.4865 44.4485 45.4926 44.5289 45.4926 44.6155L45.4988 44.6216Z" fill="#03BCA3"/>
<path d="M35.4811 41.103L29.4601 41.1277C28.2103 41.1277 27.0037 41.6719 26.2218 42.649C25.7662 43.2179 25.5076 43.8425 25.4707 44.4856C25.5015 43.8301 25.7662 43.1932 26.2464 42.6057C27.0529 41.6163 28.2965 41.0782 29.5709 41.0782L35.4873 41.103H35.4811Z" fill="url(#paint0_linear_1_6933)"/>
<path d="M41.4727 50.014C41.3865 45.3204 40.7524 44.3928 41.682 43.2735C41.7867 43.1436 42.3346 42.4881 43.2335 42.3211C43.9476 42.1851 44.6002 42.4201 44.908 42.5932C46.7796 43.6569 46.2255 48.2702 44.9942 51.1828C44.7233 51.8198 44.003 53.5204 43.1288 53.4771C42.7717 53.4585 42.5008 53.1555 42.3161 52.9391C41.4912 51.9682 41.485 50.719 41.4727 50.0079V50.014Z" fill="#03BCA3"/>
<path d="M42.3287 52.9638C42.1501 53.2421 41.9593 53.5142 41.7561 53.7739C41.6884 53.7059 41.633 53.6379 41.5837 53.576C40.7588 52.6051 40.7526 51.356 40.7403 50.6448C40.6541 45.9512 40.02 45.0236 40.9496 43.9104C41.0173 43.83 41.2697 43.527 41.6761 43.2797C40.7526 44.3928 41.3806 45.3266 41.4729 50.0079C41.4852 50.719 41.4975 51.9682 42.3163 52.9391C42.3163 52.9391 42.3287 52.9514 42.3287 52.9576V52.9638Z" fill="#079E85"/>
<path d="M44.9699 46.1057C44.9452 45.5986 44.8467 45.2276 44.662 44.4917C44.4158 43.5208 44.1079 43.0508 44.305 42.8591C44.4342 42.7354 44.6928 42.822 44.7482 42.8406C45.6286 43.125 45.9056 44.7885 45.8687 45.8274C45.8441 46.4644 45.6902 47.1756 45.4562 47.2127C45.4193 47.2127 45.3269 47.2127 45.2654 47.157C45.0068 46.9282 44.9883 46.4953 44.9699 46.1119V46.1057Z" fill="white"/>
<path d="M45.5725 47.8868C45.5725 47.9858 45.4925 48.0723 45.3878 48.0723C45.2832 48.0723 45.2031 47.9919 45.2031 47.8868C45.2031 47.7817 45.2832 47.7013 45.3878 47.7013C45.4925 47.7013 45.5725 47.7817 45.5725 47.8868Z" fill="white"/>
</g>
<g clip-path="url(#clip1_1_6933)">
<path d="M37.7604 46.7209C38.0466 46.7209 38.3327 46.7209 38.6189 46.7204C38.6495 46.7204 38.6592 46.7272 38.6587 46.7592C38.6572 46.9377 38.6601 47.1157 38.6325 47.2932C38.5156 48.0436 37.9719 48.6309 37.2065 48.7488C36.8471 48.8041 36.4916 48.7832 36.1521 48.6455C35.5729 48.4102 35.2213 47.9766 35.0923 47.3679C35.0064 46.9629 35.0341 46.5618 35.2019 46.1791C35.4478 45.6184 35.877 45.2789 36.4756 45.1644C36.8806 45.0868 37.2822 45.115 37.6716 45.2614C38.0184 45.3919 38.2731 45.6296 38.4661 45.94C38.4841 45.9686 38.4632 45.971 38.4477 45.9783C38.2396 46.0743 38.0315 46.1699 37.8235 46.2654C37.7551 46.297 37.6867 46.327 37.6193 46.36C37.5999 46.3692 37.5911 46.3697 37.578 46.3498C37.4083 46.0933 37.1667 45.9822 36.8617 45.989C36.4567 45.9982 36.1419 46.2863 36.0492 46.6758C35.9833 46.9518 36.0065 47.2214 36.1477 47.4712C36.3073 47.754 36.5512 47.9024 36.8796 47.9039C37.0484 47.9043 37.2128 47.8835 37.3617 47.7967C37.4898 47.7215 37.5746 47.6124 37.6057 47.4644C37.6125 47.4329 37.6086 47.4213 37.5712 47.4213C37.3467 47.4232 37.1216 47.4213 36.8971 47.4227C36.868 47.4227 36.8597 47.4159 36.8602 47.3859C36.8617 47.1758 36.8617 46.9658 36.8602 46.7558C36.8602 46.7248 36.8694 46.7194 36.898 46.7194C37.1856 46.7204 37.4728 46.7199 37.7604 46.7199V46.7209Z" fill="#011735"/>
<path d="M34.871 47.7326C34.9219 47.9019 34.9864 48.0649 35.0674 48.2211C35.1179 48.3181 35.1722 48.4126 35.2347 48.5019C35.2503 48.5242 35.2478 48.5334 35.226 48.5475C35.0592 48.6532 34.8787 48.7279 34.6876 48.772C34.2157 48.8812 33.7506 48.8676 33.3043 48.6629C32.7621 48.4141 32.3935 48.0081 32.263 47.4179C32.1015 46.6884 32.3687 45.9797 32.9842 45.5452C33.364 45.2769 33.7894 45.1688 34.2516 45.1901C34.5567 45.2042 34.8453 45.276 35.1179 45.4137C35.1683 45.4393 35.1791 45.476 35.1504 45.5238C35.0175 45.744 34.9204 45.9797 34.8525 46.2276C34.8394 46.2756 34.8399 46.2756 34.7934 46.2528C34.5116 46.1141 34.2172 46.0729 33.9087 46.1369C33.5342 46.2145 33.2684 46.5109 33.2301 46.894C33.2034 47.1613 33.2573 47.4062 33.4353 47.6148C33.5692 47.771 33.7423 47.8583 33.9417 47.8946C34.2652 47.9538 34.5698 47.8975 34.8564 47.7385C34.8598 47.7365 34.8632 47.7355 34.8715 47.7326H34.871Z" fill="#011735"/>
<path d="M30.4971 47.4241C30.4971 47.0031 30.4971 46.5816 30.4971 46.1606C30.4971 46.0665 30.4646 46.034 30.3705 46.034C30.1595 46.034 29.9485 46.0335 29.738 46.035C29.7094 46.035 29.7031 46.0277 29.7036 46C29.7041 45.7537 29.7041 45.5068 29.7031 45.2604C29.7031 45.2327 29.7094 45.225 29.738 45.225C30.5529 45.2259 31.3677 45.2259 32.1821 45.225C32.2136 45.225 32.2185 45.2356 32.2185 45.2633C32.2175 45.5073 32.2175 45.7512 32.2185 45.9952C32.2185 46.0262 32.2112 46.035 32.1797 46.035C31.9677 46.0335 31.7553 46.034 31.5433 46.0345C31.4599 46.0345 31.424 46.0704 31.424 46.1538C31.424 47.0036 31.424 47.8538 31.425 48.7036C31.425 48.739 31.4177 48.7492 31.3808 48.7492C31.0995 48.7472 30.8182 48.7472 30.5374 48.7492C30.5025 48.7492 30.4971 48.739 30.4971 48.7075C30.4981 48.2802 30.4976 47.8524 30.4976 47.4251L30.4971 47.4241Z" fill="#011735"/>
</g>
<defs>
<linearGradient id="paint0_linear_1_6933" x1="28.2534" y1="44.9123" x2="37.6409" y2="34.0018" gradientUnits="userSpaceOnUse">
<stop offset="0.04" stop-color="#06CFF1"/>
<stop offset="1" stop-color="#DEFA8E"/>
</linearGradient>
<clipPath id="clip0_1_6933">
<rect width="32.2722" height="48.4084" fill="white" transform="translate(17.4805 8.06799)"/>
</clipPath>
<clipPath id="clip1_1_6933">
<rect width="8.95555" height="3.71725" fill="white" transform="translate(29.7031 45.1227)"/>
</clipPath>
</defs>
</svg>
